<svg width="93" height="93" viewBox="0 0 93 93" fill="none" xmlns="http://www.w3.org/2000/svg">
<path d="M5.8125 46.5C5.8125 51.0107 6.50879 55.3247 7.90137 59.4419C9.29395 63.5591 11.2769 67.3433 13.8501 70.7944C16.4233 74.2456 19.4961 77.2275 23.0684 79.7402C26.6406 82.2529 30.5762 84.1602 34.875 85.4619V91.4561C29.7588 90.124 25.0664 88.0352 20.7979 85.1895C16.5293 82.3438 12.8511 78.9229 9.76318 74.9268C6.67529 70.9307 4.28369 66.5259 2.58838 61.7124C0.893066 56.8989 0.0302734 51.8281 0 46.5C0 42.2314 0.544922 38.1143 1.63477 34.1484C2.72461 30.1826 4.29883 26.4893 6.35742 23.0684C8.41602 19.6475 10.8379 16.5142 13.623 13.6685C16.4082 10.8228 19.5415 8.38574 23.0229 6.35742C26.5044 4.3291 30.2129 2.77002 34.1484 1.68018C38.084 0.590332 42.2012 0.0302734 46.5 0C50.5869 0 54.5225 0.499512 58.3066 1.49854C62.0908 2.49756 65.6631 3.93555 69.0234 5.8125C72.3838 7.68945 75.4565 9.94482 78.2417 12.5786C81.0269 15.2124 83.4639 18.1338 85.5527 21.3428C87.6416 24.5518 89.3066 28.0332 90.5479 31.7871C91.7891 35.541 92.561 39.4312 92.8638 43.4575L85.8706 36.4644C84.7202 31.9839 82.9038 27.8667 80.4214 24.1128C77.939 20.3589 74.9419 17.1196 71.4302 14.395C67.9185 11.6704 64.0586 9.56641 59.8506 8.08301C55.6426 6.59961 51.1924 5.84277 46.5 5.8125C42.7461 5.8125 39.1436 6.29688 35.6924 7.26562C32.2412 8.23438 29.0171 9.59668 26.02 11.3525C23.0229 13.1084 20.2681 15.2427 17.7554 17.7554C15.2427 20.2681 13.1235 23.0078 11.3979 25.9746C9.67236 28.9414 8.29492 32.1807 7.26562 35.6924C6.23633 39.2041 5.75195 42.8066 5.8125 46.5ZM46.5 23.25C43.291 23.25 40.2788 23.8555 37.4634 25.0664C34.6479 26.2773 32.1958 27.9424 30.1069 30.0615C28.0181 32.1807 26.353 34.6479 25.1118 37.4634C23.8706 40.2788 23.25 43.291 23.25 46.5C23.25 49.6182 23.8252 52.585 24.9756 55.4004C26.126 58.2158 27.8213 60.7285 30.0615 62.9385L25.9292 67.0708C23.1743 64.3159 21.0703 61.1675 19.6172 57.6255C18.1641 54.0835 17.4375 50.375 17.4375 46.5C17.4375 43.8359 17.7856 41.2627 18.4819 38.7803C19.1782 36.2979 20.147 33.9819 21.3882 31.8325C22.6294 29.6831 24.1431 27.7305 25.9292 25.9746C27.7153 24.2188 29.6831 22.7051 31.8325 21.4336C33.9819 20.1621 36.2979 19.1782 38.7803 18.4819C41.2627 17.7856 43.8359 17.4375 46.5 17.4375C48.7705 17.4375 50.9956 17.6948 53.1753 18.2095C55.355 18.7241 57.4287 19.4961 59.3965 20.5254C61.3643 21.5547 63.2261 22.7656 64.9819 24.1582C66.7378 25.5508 68.2817 27.1855 69.6138 29.0625H61.7124C59.5933 27.1855 57.2471 25.7476 54.6738 24.7485C52.1006 23.7495 49.376 23.25 46.5 23.25ZM73.8823 34.875L93 53.9927V93H40.6875V34.875H73.8823ZM75.5625 44.8198V52.3125H83.0552L75.5625 44.8198ZM87.1875 87.1875V58.125H69.75V40.6875H46.5V87.1875H87.1875ZM81.375 63.9375V81.375H75.5625V63.9375H81.375ZM52.3125 81.375V58.125H58.125V81.375H52.3125ZM63.9375 81.375V69.75H69.75V81.375H63.9375Z" fill="#008A66"/>
</svg>
