<svg width="93" height="93" viewBox="0 0 93 93" fill="none" xmlns="http://www.w3.org/2000/svg">
<path d="M5.8125 46.5C5.8125 50.2539 6.29688 53.8564 7.26562 57.3076C8.23438 60.7588 9.59668 63.9829 11.3525 66.98C13.1084 69.9771 15.2427 72.7319 17.7554 75.2446C20.2681 77.7573 23.0078 79.8765 25.9746 81.6021C28.9414 83.3276 32.1807 84.7051 35.6924 85.7344C39.2041 86.7637 42.8066 87.248 46.5 87.1875V93C42.2012 93 38.084 92.4551 34.1484 91.3652C30.2129 90.2754 26.5044 88.7163 23.0229 86.688C19.5415 84.6597 16.4082 82.2378 13.623 79.4224C10.8379 76.6069 8.41602 73.4585 6.35742 69.9771C4.29883 66.4956 2.73975 62.7871 1.68018 58.8516C0.620605 54.916 0.0605469 50.7988 0 46.5C0 42.2314 0.544922 38.1143 1.63477 34.1484C2.72461 30.1826 4.28369 26.4741 6.31201 23.0229C8.34033 19.5718 10.7622 16.4385 13.5776 13.623C16.3931 10.8076 19.5415 8.38574 23.0229 6.35742C26.5044 4.3291 30.2129 2.77002 34.1484 1.68018C38.084 0.590332 42.2012 0.0302734 46.5 0C50.7686 0 54.8857 0.544922 58.8516 1.63477C62.8174 2.72461 66.5259 4.28369 69.9771 6.31201C73.4282 8.34033 76.5615 10.7622 79.377 13.5776C82.1924 16.3931 84.6143 19.5415 86.6426 23.0229C88.6709 26.5044 90.23 30.2129 91.3198 34.1484C92.4097 38.084 92.9697 42.2012 93 46.5H87.1875C87.1875 42.7764 86.7031 39.189 85.7344 35.7378C84.7656 32.2866 83.4033 29.0474 81.6475 26.02C79.8916 22.9927 77.7573 20.2378 75.2446 17.7554C72.7319 15.2729 69.9922 13.1538 67.0254 11.3979C64.0586 9.64209 60.8193 8.26465 57.3076 7.26562C53.7959 6.2666 50.1934 5.78223 46.5 5.8125C42.7461 5.8125 39.1436 6.29688 35.6924 7.26562C32.2412 8.23438 29.0171 9.59668 26.02 11.3525C23.0229 13.1084 20.2681 15.2427 17.7554 17.7554C15.2427 20.2681 13.1235 23.0078 11.3979 25.9746C9.67236 28.9414 8.29492 32.1807 7.26562 35.6924C6.23633 39.2041 5.75195 42.8066 5.8125 46.5ZM75.5625 46.5H69.75C69.75 43.291 69.1445 40.2788 67.9336 37.4634C66.7227 34.6479 65.0576 32.1958 62.9385 30.1069C60.8193 28.0181 58.3521 26.353 55.5366 25.1118C52.7212 23.8706 49.709 23.25 46.5 23.25C43.291 23.25 40.2788 23.8555 37.4634 25.0664C34.6479 26.2773 32.1958 27.9424 30.1069 30.0615C28.0181 32.1807 26.353 34.6479 25.1118 37.4634C23.8706 40.2788 23.25 43.291 23.25 46.5C23.25 49.6182 23.8252 52.585 24.9756 55.4004C26.126 58.2158 27.8213 60.7285 30.0615 62.9385L25.9292 67.0708C23.1743 64.3159 21.0703 61.1675 19.6172 57.6255C18.1641 54.0835 17.4375 50.375 17.4375 46.5C17.4375 42.4736 18.1943 38.7046 19.708 35.1929C21.2217 31.6812 23.2954 28.5933 25.9292 25.9292C28.563 23.2651 31.6357 21.1914 35.1475 19.708C38.6592 18.2246 42.4434 17.4678 46.5 17.4375C50.5264 17.4375 54.2954 18.1943 57.8071 19.708C61.3188 21.2217 64.4067 23.2954 67.0708 25.9292C69.7349 28.563 71.8086 31.6357 73.292 35.1475C74.7754 38.6592 75.5322 42.4434 75.5625 46.5ZM46.5 34.875C48.1045 34.875 49.603 35.1777 50.9956 35.7832C52.3882 36.3887 53.6294 37.2212 54.7192 38.2808C55.8091 39.3403 56.6416 40.5664 57.2168 41.959C57.792 43.3516 58.0947 44.8652 58.125 46.5C58.125 48.1045 57.8223 49.603 57.2168 50.9956C56.6113 52.3882 55.7788 53.6294 54.7192 54.7192C53.6597 55.8091 52.4336 56.6416 51.041 57.2168C49.6484 57.792 48.1348 58.0947 46.5 58.125C44.8955 58.125 43.397 57.8223 42.0044 57.2168C40.6118 56.6113 39.3706 55.7788 38.2808 54.7192C37.1909 53.6597 36.3584 52.4336 35.7832 51.041C35.208 49.6484 34.9053 48.1348 34.875 46.5C34.875 44.8955 35.1777 43.397 35.7832 42.0044C36.3887 40.6118 37.2212 39.3706 38.2808 38.2808C39.3403 37.1909 40.5664 36.3584 41.959 35.7832C43.3516 35.208 44.8652 34.9053 46.5 34.875ZM46.5 52.3125C47.3174 52.3125 48.0742 52.1611 48.7705 51.8584C49.4668 51.5557 50.0723 51.147 50.5869 50.6323C51.1016 50.1177 51.5254 49.4971 51.8584 48.7705C52.1914 48.0439 52.3428 47.2871 52.3125 46.5C52.3125 45.6826 52.1611 44.9258 51.8584 44.2295C51.5557 43.5332 51.147 42.9277 50.6323 42.4131C50.1177 41.8984 49.4971 41.4746 48.7705 41.1416C48.0439 40.8086 47.2871 40.6572 46.5 40.6875C45.6826 40.6875 44.9258 40.8389 44.2295 41.1416C43.5332 41.4443 42.9277 41.853 42.4131 42.3677C41.8984 42.8823 41.4746 43.5029 41.1416 44.2295C40.8086 44.9561 40.6572 45.7129 40.6875 46.5C40.6875 47.3174 40.8389 48.0742 41.1416 48.7705C41.4443 49.4668 41.853 50.0723 42.3677 50.5869C42.8823 51.1016 43.5029 51.5254 44.2295 51.8584C44.9561 52.1914 45.7129 52.3428 46.5 52.3125ZM81.375 63.9375V75.5625H93V81.375H81.375V93H75.5625V81.375H63.9375V75.5625H75.5625V63.9375H81.375Z" fill="#008A66"/>
</svg>
