<svg width="90" height="90" viewBox="0 0 90 90" fill="none" xmlns="http://www.w3.org/2000/svg">
<path d="M6.39286 0H0V83.1071C0 84.8026 0.673531 86.4287 1.87242 87.6276C3.07132 88.8265 4.69737 89.5 6.39286 89.5H89.5V83.1071H6.39286V0Z" fill="#008A66"/>
<path d="M89.5002 22.375H67.1252V28.7679H78.6003L54.3395 53.0287L40.6268 39.2841C40.3296 38.9845 39.9761 38.7467 39.5866 38.5844C39.1971 38.4222 38.7793 38.3386 38.3573 38.3386C37.9354 38.3386 37.5176 38.4222 37.128 38.5844C36.7385 38.7467 36.385 38.9845 36.0879 39.2841L12.7859 62.618L17.2929 67.125L38.3573 46.0605L52.07 59.8052C52.3671 60.1048 52.7207 60.3426 53.1102 60.5049C53.4997 60.6671 53.9175 60.7507 54.3395 60.7507C54.7614 60.7507 55.1792 60.6671 55.5687 60.5049C55.9582 60.3426 56.3118 60.1048 56.6089 59.8052L83.1073 33.2748V44.75H89.5002V22.375Z" fill="#008A66"/>
</svg>
