<?xml version="1.0" standalone="no"?>
<!DOCTYPE svg PUBLIC "-//W3C//DTD SVG 20010904//EN"
 "http://www.w3.org/TR/2001/REC-SVG-20010904/DTD/svg10.dtd">
<svg version="1.0" xmlns="http://www.w3.org/2000/svg"
 width="1303.000000pt" height="242.000000pt" viewBox="0 0 1303.000000 242.000000"
 preserveAspectRatio="xMidYMid meet">

<g transform="translate(0.000000,242.000000) scale(0.100000,-0.100000)"
fill="#000000" stroke="none">
<path d="M12446 1743 c-17 -8 -58 -18 -93 -21 l-63 -5 0 -43 0 -44 46 7 45 6
-3 -391 c-3 -361 -4 -391 -21 -410 -10 -11 -28 -23 -40 -26 -17 -4 -22 -12
-21 -38 l1 -33 161 -3 162 -2 0 45 0 45 -40 0 -40 0 0 116 c0 113 0 115 22
112 15 -2 46 -37 98 -109 95 -134 140 -186 174 -199 15 -5 61 -10 102 -10 l74
0 0 35 c0 28 -5 37 -24 45 -33 12 -60 41 -155 164 -45 58 -93 114 -107 125
l-26 20 94 94 c76 76 102 96 143 109 47 14 50 18 53 52 l3 36 -140 0 -141 0 0
-45 c0 -45 0 -45 35 -45 l35 0 -59 -62 c-32 -35 -71 -78 -86 -95 -21 -26 -35
-33 -61 -33 l-34 0 0 310 0 310 -32 0 c-18 -1 -46 -8 -62 -17z"/>
<path d="M8354 1740 c-61 -23 -81 -115 -35 -164 34 -36 98 -36 131 -2 30 33
32 95 4 133 -22 29 -68 44 -100 33z"/>
<path d="M11167 1731 c-39 -19 -59 -70 -46 -115 11 -38 27 -54 66 -65 87 -25
149 85 88 157 -31 37 -66 44 -108 23z"/>
<path d="M3251 1699 c-124 -21 -254 -116 -310 -227 -110 -217 -85 -455 64
-611 65 -68 128 -105 216 -126 86 -20 141 -19 232 5 106 27 156 57 241 147
l39 42 -29 24 -28 24 -45 -46 c-89 -90 -243 -135 -347 -101 -139 45 -224 193
-224 390 0 243 116 399 298 400 118 0 194 -60 230 -183 17 -57 17 -58 51 -55
l35 3 -1 155 -1 155 -47 3 -47 3 7 -30 c4 -17 5 -31 2 -31 -3 0 -29 11 -58 24
-51 24 -160 47 -204 45 -11 -1 -44 -5 -74 -10z"/>
<path d="M10293 1682 c-19 -3 -23 -10 -23 -43 l0 -39 48 0 47 0 -3 -357 c-2
-254 -6 -364 -15 -382 -7 -16 -25 -30 -44 -36 -30 -8 -33 -13 -33 -47 l0 -38
348 2 347 3 3 153 3 152 -34 0 c-34 0 -35 -1 -41 -52 -4 -29 -18 -72 -31 -94
-37 -62 -71 -74 -214 -74 l-122 0 3 368 c3 402 2 395 62 410 30 8 40 32 29 67
-3 9 -274 15 -330 7z"/>
<path d="M7822 1561 c-16 -53 -78 -119 -127 -136 -38 -12 -40 -15 -43 -59 l-3
-46 50 0 51 0 0 -211 c0 -236 8 -285 54 -334 82 -86 261 -62 348 48 l31 39
-25 24 -24 25 -37 -35 c-39 -36 -90 -53 -126 -41 -50 15 -64 105 -54 340 l6
155 94 0 94 0 -3 43 -3 42 -92 3 -93 3 0 89 0 90 -43 0 c-42 0 -44 -1 -55 -39z"/>
<path d="M4064 1431 c-149 -36 -253 -170 -262 -337 -9 -171 66 -296 209 -350
67 -26 201 -24 261 3 107 49 181 155 197 280 25 202 -67 352 -244 398 -63 16
-110 18 -161 6z m143 -96 c55 -36 102 -214 88 -329 -15 -124 -56 -188 -127
-200 -78 -14 -142 41 -173 146 -19 66 -22 205 -6 265 32 119 133 173 218 118z"/>
<path d="M4985 1434 c-40 -10 -100 -36 -126 -55 -36 -26 -39 -25 -39 16 0 32
-2 35 -30 35 -17 0 -44 -7 -61 -15 -16 -9 -59 -19 -94 -22 l-65 -6 0 -43 0
-44 45 7 45 6 -1 -209 c0 -237 -8 -277 -51 -282 -25 -3 -28 -7 -28 -43 l0 -39
160 0 c88 0 160 3 161 8 0 4 2 16 4 27 8 40 -4 55 -46 55 l-40 0 2 219 c1 244
-1 235 72 266 47 20 107 19 136 -1 43 -31 54 -77 59 -249 4 -183 -6 -235 -48
-245 -20 -5 -26 -13 -28 -43 l-3 -37 160 0 161 0 0 45 0 45 -39 0 -39 0 -4
223 c-3 186 -6 229 -21 262 -21 47 -52 81 -89 101 -29 15 -121 26 -153 18z"/>
<path d="M5796 1424 c-27 -9 -65 -26 -86 -39 -42 -27 -50 -24 -50 17 0 34 -20
36 -100 8 -30 -11 -76 -19 -102 -20 l-48 0 0 -46 0 -45 46 7 45 6 -3 -230 c-3
-248 -6 -261 -56 -265 -18 -1 -22 -7 -22 -39 l0 -38 163 2 162 3 3 43 3 42
-46 0 -47 0 6 113 c3 61 5 162 5 224 l1 111 37 23 c21 13 58 24 88 27 44 4 55
1 82 -22 43 -36 53 -91 53 -279 0 -165 -8 -197 -50 -207 -20 -5 -26 -13 -28
-43 l-3 -38 163 3 163 3 3 43 3 42 -45 0 -44 0 -4 228 c-3 214 -4 230 -26 272
-26 51 -73 88 -129 101 -52 12 -79 10 -137 -7z"/>
<path d="M6484 1419 c-158 -49 -257 -236 -224 -419 28 -157 130 -257 281 -275
112 -14 233 29 307 109 23 25 42 48 42 51 0 2 -11 12 -25 21 -24 15 -26 15
-62 -14 -52 -40 -73 -50 -131 -63 -68 -14 -125 2 -173 50 -39 39 -56 82 -66
174 l-6 57 159 1 c87 1 166 3 174 4 8 1 39 3 68 4 l52 1 0 40 c0 83 -52 186
-117 230 -37 25 -129 50 -183 49 -19 0 -63 -9 -96 -20z m187 -95 c23 -22 49
-91 49 -129 0 -3 -63 -5 -140 -5 -127 0 -140 2 -140 18 1 26 35 95 58 115 48
44 128 44 173 1z"/>
<path d="M7239 1427 c-179 -51 -289 -232 -258 -425 24 -153 118 -248 272 -275
115 -19 257 33 323 120 l27 35 -26 26 -26 26 -20 -25 c-33 -43 -115 -80 -174
-80 -66 0 -94 11 -134 51 -84 86 -96 307 -23 408 49 68 146 90 207 47 19 -13
21 -22 16 -69 -5 -46 -2 -57 16 -75 22 -22 70 -28 100 -11 27 14 44 64 37 105
-9 46 -60 104 -114 127 -55 25 -163 32 -223 15z"/>
<path d="M8888 1425 c-93 -25 -170 -94 -217 -194 -23 -49 -26 -68 -26 -161 0
-89 4 -113 24 -158 31 -68 113 -144 183 -169 75 -26 198 -24 260 4 161 73 242
275 186 463 -30 101 -127 191 -235 216 -70 17 -113 16 -175 -1z m150 -85 c70
-43 114 -213 93 -356 -19 -127 -58 -177 -140 -178 -64 -1 -97 23 -135 98 -26
51 -30 72 -34 165 -6 155 23 236 98 273 46 23 77 23 118 -2z"/>
<path d="M9825 1434 c-44 -11 -125 -47 -136 -60 -19 -23 -29 -16 -29 22 0 36
0 36 -37 31 -21 -2 -56 -12 -78 -20 -22 -9 -61 -16 -87 -17 l-48 0 0 -45 0
-45 45 7 45 6 -1 -209 c0 -237 -8 -277 -51 -282 -25 -3 -28 -7 -28 -43 l0 -39
163 2 162 3 3 43 3 42 -45 0 -46 0 3 218 c1 119 6 223 11 231 14 22 88 51 134
51 34 0 49 -6 72 -28 38 -38 50 -104 50 -273 0 -157 -12 -205 -52 -211 -19 -2
-24 -10 -26 -41 l-3 -38 163 3 163 3 -1 28 c-3 58 -2 57 -44 57 l-40 0 0 203
c0 153 -4 216 -15 255 -17 57 -53 105 -95 127 -30 16 -123 27 -155 19z"/>
<path d="M11838 1421 c-31 -10 -69 -28 -86 -40 -26 -18 -31 -19 -36 -5 -3 9
-6 24 -6 35 0 25 -28 24 -100 -1 -30 -11 -76 -19 -102 -20 l-48 0 0 -45 0 -46
48 7 47 6 -3 -223 c-2 -124 -8 -231 -13 -242 -6 -10 -24 -23 -40 -29 -26 -9
-30 -15 -27 -42 l3 -31 163 -3 162 -2 0 45 0 45 -42 0 -43 0 3 217 c1 120 4
223 6 229 7 19 94 54 135 54 50 0 93 -35 109 -88 7 -23 12 -108 12 -208 0
-183 -7 -209 -53 -216 -18 -2 -23 -10 -25 -40 l-3 -38 165 0 166 0 0 45 0 45
-43 0 -44 0 5 153 c7 264 -21 378 -104 424 -57 32 -136 37 -206 14z"/>
<path d="M8365 1409 c-27 -10 -71 -18 -97 -19 l-48 0 0 -45 0 -45 45 7 45 6 0
-219 c0 -240 -5 -267 -53 -272 -24 -3 -27 -7 -27 -43 l0 -39 163 2 162 3 3 43
3 42 -46 0 -46 0 1 278 c0 152 0 287 0 300 0 27 -31 28 -105 1z"/>
<path d="M11185 1409 c-27 -10 -72 -18 -98 -19 l-48 0 3 -42 3 -43 45 3 45 3
-3 -223 c-2 -122 -8 -231 -14 -241 -5 -10 -23 -23 -39 -29 -26 -9 -30 -15 -27
-42 l3 -31 163 -3 162 -2 0 45 0 45 -42 0 -43 0 3 300 3 300 -33 -1 c-18 -1
-55 -10 -83 -20z"/>
</g>
</svg>
